<svg xmlns="http://www.w3.org/2000/svg" version="1.1" xmlns:xlink="http://www.w3.org/1999/xlink" xmlns:svgjs="http://svgjs.com/svgjs" width="1440" height="560" preserveAspectRatio="none" viewBox="0 0 1440 560"><g mask="url(&quot;#SvgjsMask1037&quot;)" fill="none"><rect width="1440" height="560" x="0" y="0" fill="rgba(253, 200, 0, 1)"></rect><path d="M 0,195 C 26.2,182.4 78.6,123.6 131,132 C 183.4,140.4 209.6,247.8 262,237 C 314.4,226.2 340.6,96.6 393,78 C 445.4,59.4 471.6,148.2 524,144 C 576.4,139.8 602.6,44.2 655,57 C 707.4,69.8 733.6,194.8 786,208 C 838.4,221.2 864.6,115.6 917,123 C 969.4,130.4 995.6,243 1048,245 C 1100.4,247 1126.6,132 1179,133 C 1231.4,134 1257.8,256.2 1310,250 C 1362.2,243.8 1414,131.6 1440,102L1440 560L0 560z" fill="#184a7e"></path><path d="M 0,463 C 96,446.4 288,365.8 480,380 C 672,394.2 768,548.6 960,534 C 1152,519.4 1344,352.4 1440,307L1440 560L0 560z" fill="rgba(34, 100, 171, 0)"></path></g><defs><mask id="SvgjsMask1037"><rect width="1440" height="560" fill="#ffffff"></rect></mask></defs></svg>